# xmcd
#
# Track frame offsets:
#	150
#	12520
#	28600
#	43625
#	58642
#	80287
#	95322
#	109745
#	122535
#	132172
#	147947
#	162232
#	178077
#	191417
#	209060
#	227650
#
# Disc length: 3196 seconds
#
# Revision: 2
# Processed by: cddbd v1.4PL0 Copyright (c) Steve Scherf et al.
# Submitted via: EZCDDA 4.3.2
#
DISCID=d60c7a10
DTITLE=The Dunn Packer Band - Love Against the Wall
DYEAR=1900
DGENRE=
TTITLE0=Love Against the wall
TTITLE1=Broken Dreams
TTITLE2=Dear John
TTITLE3=21 Days
TTITLE4=Close to you
TTITLE5=Mama talk to your daughter
TTITLE6=Heart's desire
TTITLE7=House with a cardboard gate
TTITLE8=Look what you've done
TTITLE9=I get so Worried
TTITLE10=Bring it on home
TTITLE11=I don't care
TTITLE12=Can't help it
TTITLE13=Certain girl
TTITLE14=Pallet on the floor
TTITLE15=Pedal to the metal
EXTD=
EXTT0=
EXTT1=
EXTT2=
EXTT3=
EXTT4=
EXTT5=
EXTT6=
EXTT7=
EXTT8=
EXTT9=
EXTT10=
EXTT11=
EXTT12=
EXTT13=
EXTT14=
EXTT15=
PLAYORDER=
